<?xml version="1.0" encoding="utf-8"?>
<!-- Generator: Adobe Illustrator 23.0.0, SVG Export Plug-In . SVG Version: 6.00 Build 0)  -->
<svg version="1.1" id="Camada_1" xmlns="http://www.w3.org/2000/svg" xmlns:xlink="http://www.w3.org/1999/xlink" x="0px" y="0px"
	 viewBox="0 0 1000 375.9" style="enable-background:new 0 0 1000 375.9;" xml:space="preserve">
<style type="text/css">
	.st0{fill:#A435F0;}
</style>
<g>
	<path class="st0" d="M155.3,89.7L77.7,44.8L0,89.7V44.8L77.7,0l77.7,44.8L155.3,89.7L155.3,89.7z"/>
	<path d="M0,127.4h40.7v98.9c0,25.5,19.1,38,37,38c18.1,0,37-12.8,37-38.3v-98.5h40.7v101.2c0,23.5-7.4,41.7-22.2,54.1
		c-14.8,12.4-33.3,18.5-55.8,18.5c-22.5,0-41-6-55.5-18.5C7.4,270.3,0,252.8,0,229.6C0,229.6,0,127.4,0,127.4z M507.1,250.2
		c-12.3,11-26.3,16.3-42.3,16.3c-29.2,0-48.8-16.6-51-42.4h131.5c0,0,0.9-8.3,0.9-16.1c0-24.2-7.7-44.4-23.6-60.9
		c-15.5-16.5-35.6-24.5-60.2-24.5c-25.9,0-47.1,8.1-63.9,24.5c-16.5,16.5-24.9,38-24.9,64.9v1.3c0,26.6,8.4,47.8,24.9,63.6
		c16.5,15.8,38.3,23.9,64.9,23.9c30.9,0,55.5-12.2,73.9-33.2C537.4,267.7,507.1,250.2,507.1,250.2z M429.8,167.7
		c9.1-7.1,20.2-10.8,32.6-10.8c11.8,0,21.5,3.7,29.9,11.1c8,6.7,12.4,15,12.7,24.5h-90.2C416.2,182.7,421.1,174.5,429.8,167.7
		L429.8,167.7z M916.7,323.7c-16.5,39-33.8,52.2-60.3,52.2h-18.4v-36.1H853c9.1,0,17.6-3.4,25.7-22l8.1-18.6l-69.6-171.8h41.4
		l49.4,123.7l50.8-123.7h41.4L916.7,323.7L916.7,323.7z M313.8,62.5v80.2c-13.3-11.9-34.1-19.1-54.1-19.1
		c-23.9,0-44.1,8.4-60.5,25.5c-16.1,16.8-24.2,37.7-24.2,62.9c0,25.2,8.1,46.1,24.2,63.2c16.5,16.8,36.7,25.2,60.5,25.2
		c27.5,0,44.9-10.8,54.1-19.3v15.6h40.4V62.5L313.8,62.5L313.8,62.5z M301.7,249.1c-9.8,9.8-22.2,14.8-36.7,14.8
		c-14.5,0-26.2-5.1-36-14.8c-9.4-9.8-14.1-22.2-14.1-37c0-14.8,4.7-27.2,14.1-37c9.8-9.8,21.5-14.8,36-14.8c14.5,0,26.9,5,36.7,14.8
		c10.1,9.8,15.1,22.2,15.1,37C316.8,226.9,311.7,239.3,301.7,249.1z M754.3,124c-30.6,0-46.6,12.7-57.5,25c-4.4-8.3-16.7-25-45.4-25
		c-24.3,0-38.6,12.3-45.7,21v-17.6h-40v169.5h40v-97.5c0-22.9,14.1-39.3,32.9-39.3c19.2,0,30.3,14.5,30.3,37.7v99.2h40v-97.5
		c0-23.2,13.8-39.3,33.6-39.3c19.2,0,30.3,14.5,30.3,37.6v99.2h40.4V191.9C813.2,147.7,789.4,124,754.3,124L754.3,124z"/>
</g>
</svg>
